<svg version="1.1" id="Layer_1" xmlns="http://www.w3.org/2000/svg" xmlns:xlink="http://www.w3.org/1999/xlink" x="0px" y="0px"
	 width="100%" viewBox="0 0 197 256" enable-background="new 0 0 197 256" xml:space="preserve">
<path fill="#F6F6F6" opacity="1.000000" stroke="none" 
	d="
M97.000000,257.000000 
	C64.666672,257.000000 32.833336,257.000000 1.000004,257.000000 
	C1.000003,171.666672 1.000003,86.333351 1.000001,1.000016 
	C66.666656,1.000010 132.333313,1.000010 197.999969,1.000005 
	C197.999985,86.333313 197.999985,171.666626 198.000000,256.999969 
	C164.500000,257.000000 131.000000,257.000000 97.000000,257.000000 
M32.855267,222.554611 
	C31.885592,225.169159 30.368908,227.719711 30.054167,230.410858 
	C29.273415,237.086594 33.011547,243.159927 38.891472,245.777008 
	C44.925224,248.462555 51.472229,247.092529 56.675251,241.874451 
	C88.077629,210.381210 119.433731,178.841797 150.857681,147.370148 
	C156.930756,141.287872 163.235611,135.437042 170.404037,128.546600 
	C132.112518,90.693748 94.674759,53.697712 57.255398,16.683084 
	C50.003017,9.509141 40.669041,8.985698 34.269878,15.486696 
	C27.931911,21.925520 28.513296,31.270206 35.715939,38.499439 
	C54.644604,57.497990 73.530434,76.539566 92.527901,95.469093 
	C103.591705,106.493340 114.837448,117.334976 127.117828,129.351257 
	C95.347984,160.703201 64.315453,191.327530 32.855267,222.554611 
z"/>
<path fill="#020202" opacity="1.000000" stroke="none" 
	d="
M33.069092,222.253235 
	C64.315453,191.327530 95.347984,160.703201 127.117828,129.351257 
	C114.837448,117.334976 103.591705,106.493340 92.527901,95.469093 
	C73.530434,76.539566 54.644604,57.497990 35.715939,38.499439 
	C28.513296,31.270206 27.931911,21.925520 34.269878,15.486696 
	C40.669041,8.985698 50.003017,9.509141 57.255398,16.683084 
	C94.674759,53.697712 132.112518,90.693748 170.404037,128.546600 
	C163.235611,135.437042 156.930756,141.287872 150.857681,147.370148 
	C119.433731,178.841797 88.077629,210.381210 56.675251,241.874451 
	C51.472229,247.092529 44.925224,248.462555 38.891472,245.777008 
	C33.011547,243.159927 29.273415,237.086594 30.054167,230.410858 
	C30.368908,227.719711 31.885592,225.169159 33.069092,222.253235 
z"/>
</svg>