<svg version="1.1" id="Layer_1" xmlns="http://www.w3.org/2000/svg" fill="none" xmlns:xlink="http://www.w3.org/1999/xlink" x="0px" y="0px"
	 width="100%" viewBox="0 0 220 230" enable-background="new 0 0 220 230" xml:space="preserve">
<path fill="#f47597"  stroke="none" 
	d="
M124.000000,231.000000 
	C82.666672,231.000000 41.833340,231.000000 1.000005,231.000000 
	C1.000004,154.333344 1.000004,77.666679 1.000002,1.000016 
	C74.333321,1.000010 147.666641,1.000010 220.999969,1.000005 
	C220.999985,77.666649 220.999985,154.333298 221.000000,230.999969 
	C188.833328,231.000000 156.666672,231.000000 124.000000,231.000000 
M61.934765,185.434814 
	C78.247917,169.106155 94.561066,152.777481 110.970146,136.352798 
	C128.632614,154.029663 145.821487,171.234528 163.012817,188.436951 
	C170.315216,195.744049 177.496490,203.177994 184.959503,210.317307 
	C194.544708,219.486755 209.411209,215.451508 212.568390,202.884552 
	C214.170959,196.505661 211.964966,191.216675 207.364334,186.633743 
	C182.947891,162.311264 158.594208,137.925766 133.882965,113.226463 
	C140.661530,106.538116 147.324112,100.026512 153.917969,93.446053 
	C171.608459,75.791550 189.311234,58.148983 206.923523,40.416653 
	C214.906052,32.379696 214.246567,21.070618 205.649139,14.873944 
	C198.893219,10.004573 190.489380,10.915599 183.990585,17.399471 
	C160.989197,40.347973 138.020203,63.329018 115.084366,86.343002 
	C113.819397,87.612289 112.964813,89.290558 111.500854,91.373779 
	C109.459160,89.058441 108.436203,87.764244 107.278175,86.604980 
	C84.197701,63.499847 61.113228,40.398678 38.002144,17.324171 
	C30.379297,9.713387 20.476318,9.269485 13.658431,16.135311 
	C6.881113,22.960283 7.416662,32.804176 15.049572,40.456757 
	C29.640465,55.085243 44.248543,69.696655 58.874699,84.289879 
	C68.537994,93.931427 78.245255,103.528915 88.457191,113.666687 
	C86.765259,115.066650 85.267288,116.116302 83.992287,117.389290 
	C60.881573,140.463699 37.787273,163.554581 14.714167,186.666580 
	C7.340393,194.052780 6.983547,203.851532 13.753487,210.598328 
	C20.425205,217.247223 30.372900,216.884659 37.743050,209.606567 
	C45.686272,201.762543 53.541168,193.829071 61.934765,185.434814 
z"/>
<path fill="#f47597"  stroke="none" 
	d="
M61.684689,185.684723 
	C53.541168,193.829071 45.686272,201.762543 37.743050,209.606567 
	C30.372900,216.884659 20.425205,217.247223 13.753487,210.598328 
	C6.983547,203.851532 7.340393,194.052780 14.714167,186.666580 
	C37.787273,163.554581 60.881573,140.463699 83.992287,117.389290 
	C85.267288,116.116302 86.765259,115.066650 88.457191,113.666687 
	C78.245255,103.528915 68.537994,93.931427 58.874699,84.289879 
	C44.248543,69.696655 29.640465,55.085243 15.049572,40.456757 
	C7.416662,32.804176 6.881113,22.960283 13.658431,16.135311 
	C20.476318,9.269485 30.379297,9.713387 38.002144,17.324171 
	C61.113228,40.398678 84.197701,63.499847 107.278175,86.604980 
	C108.436203,87.764244 109.459160,89.058441 111.500854,91.373779 
	C112.964813,89.290558 113.819397,87.612289 115.084366,86.343002 
	C138.020203,63.329018 160.989197,40.347973 183.990585,17.399471 
	C190.489380,10.915599 198.893219,10.004573 205.649139,14.873944 
	C214.246567,21.070618 214.906052,32.379696 206.923523,40.416653 
	C189.311234,58.148983 171.608459,75.791550 153.917969,93.446053 
	C147.324112,100.026512 140.661530,106.538116 133.882965,113.226463 
	C158.594208,137.925766 182.947891,162.311264 207.364334,186.633743 
	C211.964966,191.216675 214.170959,196.505661 212.568390,202.884552 
	C209.411209,215.451508 194.544708,219.486755 184.959503,210.317307 
	C177.496490,203.177994 170.315216,195.744049 163.012817,188.436951 
	C145.821487,171.234528 128.632614,154.029663 110.970146,136.352798 
	C94.561066,152.777481 78.247917,169.106155 61.684689,185.684723 
z"/>
</svg>