<svg version="1.1" id="Layer_1" xmlns="http://www.w3.org/2000/svg" xmlns:xlink="http://www.w3.org/1999/xlink" x="0px" y="0px"
	 width="100%" viewBox="0 0 225 225" enable-background="new 0 0 225 225" xml:space="preserve">
<path fill="#FEFEFE" opacity="1.000000" stroke="none" 
	d="
M93.000000,226.000000 
	C62.365528,226.000000 31.731056,226.000000 1.048292,226.000000 
	C1.048292,151.110962 1.048292,76.221878 1.048292,1.000000 
	C34.020149,1.000000 67.041412,1.000000 100.285454,1.311502 
	C99.905022,3.062801 98.857971,4.475811 98.769211,5.946654 
	C98.091728,17.172167 97.012215,18.511251 86.180931,20.625196 
	C85.191376,20.818331 84.198120,20.992533 82.979164,21.217497 
	C95.058418,34.996269 99.770363,51.197525 102.262886,67.951080 
	C110.101639,67.951080 117.510925,67.951080 124.791458,67.951080 
	C127.095268,50.515003 132.357574,34.625668 143.947861,21.085726 
	C142.494904,20.883184 141.500259,20.793085 140.525665,20.601212 
	C130.056976,18.540188 128.748810,16.872995 128.192001,6.154932 
	C128.101013,4.403391 126.762123,2.716678 126.000000,1.000001 
	C159.298508,1.000000 192.597000,1.000000 225.947754,1.000000 
	C225.947754,75.886765 225.947754,150.773575 225.947754,226.000000 
	C194.979935,226.000000 163.958618,226.000000 132.599152,225.637268 
	C137.485962,222.937927 142.962112,221.021667 147.841003,218.105972 
	C150.735077,216.376465 152.904068,215.550400 156.357925,216.382248 
	C169.630386,219.578827 182.649918,219.376358 194.968979,212.313950 
	C198.399002,210.347549 200.363083,208.345749 199.176636,204.062347 
	C197.718735,198.798874 196.934036,193.348999 195.477966,188.084915 
	C189.254608,165.585846 175.986298,147.302521 160.901749,130.012512 
	C157.479095,126.089462 154.096527,124.745033 149.023560,124.800400 
	C125.042351,125.062134 101.055405,125.046448 77.073784,124.804070 
	C72.480743,124.757645 69.288895,125.860313 66.537453,129.613052 
	C63.102928,134.297440 59.031784,138.509109 55.376801,143.038864 
	C40.927132,160.946884 31.563845,181.137421 27.759388,203.926163 
	C27.049948,208.175720 28.411196,210.270096 31.896055,212.252640 
	C44.547741,219.450180 57.812939,219.515381 71.486763,216.302841 
	C72.994606,215.948593 74.954407,215.444168 76.124809,216.078751 
	C81.857651,219.187057 87.394127,222.657532 93.000000,226.000000 
M67.704140,66.233917 
	C68.949844,66.913246 70.181656,68.148941 71.443520,68.180420 
	C78.889351,68.366203 86.342171,68.271919 94.344559,68.271919 
	C92.608177,53.343235 88.357361,39.941875 79.126816,28.546751 
	C72.877441,20.831896 70.856178,20.645090 61.793285,24.941483 
	C52.621822,29.289345 49.177010,36.062626 53.469063,45.155651 
	C56.945854,52.521469 62.482841,58.914848 67.704140,66.233917 
M144.880035,32.430161 
	C137.968018,43.306221 133.823364,55.068527 132.749634,68.274254 
	C136.614853,68.274254 139.891663,67.689796 142.877609,68.374290 
	C156.631531,71.527191 163.575531,63.074883 169.769699,53.138660 
	C179.979248,36.761257 175.415741,26.118868 156.557007,22.288893 
	C156.394653,22.255919 156.210129,22.123592 156.080872,22.168097 
	C154.655441,22.658886 152.846237,22.790993 151.896790,23.760445 
	C149.469421,26.238964 147.426071,29.093557 144.880035,32.430161 
M76.221382,78.277794 
	C77.464897,86.205231 78.708405,94.132668 79.918510,101.847160 
	C90.268806,101.847160 99.834480,101.847160 109.566696,101.847160 
	C109.566696,93.226173 109.566696,84.847633 109.566696,76.045456 
	C98.619438,76.045456 87.879814,76.033096 77.140709,76.101547 
	C76.797234,76.103729 76.459038,76.934921 76.221382,78.277794 
M119.748863,102.087433 
	C128.723801,102.087433 137.698746,102.087433 147.054428,102.087433 
	C148.425827,93.358795 149.754517,84.902039 151.101700,76.327560 
	C139.599365,76.327560 128.540543,76.327560 117.220665,76.327560 
	C117.220665,84.296638 117.171967,91.938286 117.289810,99.577377 
	C117.302757,100.417061 118.270882,101.242004 119.748863,102.087433 
M121.499977,117.084038 
	C130.213577,117.084038 138.927170,117.084038 147.858688,117.084038 
	C146.700592,114.399117 145.746796,112.187836 144.871368,110.158264 
	C123.730972,110.158264 102.849480,110.158264 82.023857,110.158264 
	C81.052994,112.550575 80.178421,114.705650 79.213211,117.084038 
	C93.252541,117.084038 106.876251,117.084038 121.499977,117.084038 
z"/>
<path fill="#010101" opacity="1.000000" stroke="none" 
	d="
M93.468658,226.000000 
	C87.394127,222.657532 81.857651,219.187057 76.124809,216.078751 
	C74.954407,215.444168 72.994606,215.948593 71.486763,216.302841 
	C57.812939,219.515381 44.547741,219.450180 31.896055,212.252640 
	C28.411196,210.270096 27.049948,208.175720 27.759388,203.926163 
	C31.563845,181.137421 40.927132,160.946884 55.376801,143.038864 
	C59.031784,138.509109 63.102928,134.297440 66.537453,129.613052 
	C69.288895,125.860313 72.480743,124.757645 77.073784,124.804070 
	C101.055405,125.046448 125.042351,125.062134 149.023560,124.800400 
	C154.096527,124.745033 157.479095,126.089462 160.901749,130.012512 
	C175.986298,147.302521 189.254608,165.585846 195.477966,188.084915 
	C196.934036,193.348999 197.718735,198.798874 199.176636,204.062347 
	C200.363083,208.345749 198.399002,210.347549 194.968979,212.313950 
	C182.649918,219.376358 169.630386,219.578827 156.357925,216.382248 
	C152.904068,215.550400 150.735077,216.376465 147.841003,218.105972 
	C142.962112,221.021667 137.485962,222.937927 132.130493,225.637268 
	C119.312439,226.000000 106.624878,226.000000 93.468658,226.000000 
z"/>
<path fill="#010101" opacity="1.000000" stroke="none" 
	d="
M125.531342,1.000001 
	C126.762123,2.716678 128.101013,4.403391 128.192001,6.154932 
	C128.748810,16.872995 130.056976,18.540188 140.525665,20.601212 
	C141.500259,20.793085 142.494904,20.883184 143.947861,21.085726 
	C132.357574,34.625668 127.095268,50.515003 124.791458,67.951080 
	C117.510925,67.951080 110.101639,67.951080 102.262886,67.951080 
	C99.770363,51.197525 95.058418,34.996269 82.979164,21.217497 
	C84.198120,20.992533 85.191376,20.818331 86.180931,20.625196 
	C97.012215,18.511251 98.091728,17.172167 98.769211,5.946654 
	C98.857971,4.475811 99.905022,3.062801 100.754112,1.311502 
	C109.020897,1.000000 117.041801,1.000000 125.531342,1.000001 
z"/>
<path fill="#020202" opacity="1.000000" stroke="none" 
	d="
M67.405083,65.986740 
	C62.482841,58.914848 56.945854,52.521469 53.469063,45.155651 
	C49.177010,36.062626 52.621822,29.289345 61.793285,24.941483 
	C70.856178,20.645090 72.877441,20.831896 79.126816,28.546751 
	C88.357361,39.941875 92.608177,53.343235 94.344559,68.271919 
	C86.342171,68.271919 78.889351,68.366203 71.443520,68.180420 
	C70.181656,68.148941 68.949844,66.913246 67.405083,65.986740 
z"/>
<path fill="#020202" opacity="1.000000" stroke="none" 
	d="
M145.054581,32.113945 
	C147.426071,29.093557 149.469421,26.238964 151.896790,23.760445 
	C152.846237,22.790993 154.655441,22.658886 156.080872,22.168097 
	C156.210129,22.123592 156.394653,22.255919 156.557007,22.288893 
	C175.415741,26.118868 179.979248,36.761257 169.769699,53.138660 
	C163.575531,63.074883 156.631531,71.527191 142.877609,68.374290 
	C139.891663,67.689796 136.614853,68.274254 132.749634,68.274254 
	C133.823364,55.068527 137.968018,43.306221 145.054581,32.113945 
z"/>
<path fill="#030303" opacity="1.000000" stroke="none" 
	d="
M76.169876,77.828720 
	C76.459038,76.934921 76.797234,76.103729 77.140709,76.101547 
	C87.879814,76.033096 98.619438,76.045456 109.566696,76.045456 
	C109.566696,84.847633 109.566696,93.226173 109.566696,101.847160 
	C99.834480,101.847160 90.268806,101.847160 79.918510,101.847160 
	C78.708405,94.132668 77.464897,86.205231 76.169876,77.828720 
z"/>
<path fill="#030303" opacity="1.000000" stroke="none" 
	d="
M119.272430,102.080612 
	C118.270882,101.242004 117.302757,100.417061 117.289810,99.577377 
	C117.171967,91.938286 117.220665,84.296638 117.220665,76.327560 
	C128.540543,76.327560 139.599365,76.327560 151.101700,76.327560 
	C149.754517,84.902039 148.425827,93.358795 147.054428,102.087433 
	C137.698746,102.087433 128.723801,102.087433 119.272430,102.080612 
z"/>
<path fill="#010101" opacity="1.000000" stroke="none" 
	d="
M120.999969,117.084038 
	C106.876251,117.084038 93.252541,117.084038 79.213211,117.084038 
	C80.178421,114.705650 81.052994,112.550575 82.023857,110.158264 
	C102.849480,110.158264 123.730972,110.158264 144.871368,110.158264 
	C145.746796,112.187836 146.700592,114.399117 147.858688,117.084038 
	C138.927170,117.084038 130.213577,117.084038 120.999969,117.084038 
z"/>
</svg>