<svg version="1.1" id="Layer_1" xmlns="http://www.w3.org/2000/svg" xmlns:xlink="http://www.w3.org/1999/xlink" x="0px" y="0px"
	 width="100%" viewBox="0 0 225 225" fill="none" enable-background="new 0 0 225 225" xml:space="preserve">
<path fill="#f47597"  stroke="none" 
	d="
M1.000000,117.000000 
	C1.000000,114.958008 1.000000,112.916016 1.259522,110.184830 
	C4.282239,97.570282 12.727240,91.169235 25.880426,91.165199 
	C83.535141,91.147530 141.189850,91.157394 198.844574,91.157677 
	C214.548569,91.157753 220.771179,95.476097 226.000000,110.000000 
	C226.000000,112.041992 226.000000,114.083984 225.740448,116.815155 
	C222.717850,129.429535 214.272659,135.830719 201.119537,135.834747 
	C143.464828,135.852402 85.810120,135.842514 28.155405,135.842255 
	C12.451511,135.842178 6.229139,131.524048 1.000000,117.000000 
z"/>
<path fill="#f47597"  stroke="none" 
	d="
M1.000000,52.000000 
	C1.000000,49.958008 1.000000,47.916016 1.291202,45.219543 
	C4.152453,33.464458 12.221581,26.722071 23.639645,26.709139 
	C83.622879,26.641199 143.606293,26.644098 203.589523,26.719378 
	C214.352234,26.732885 222.219757,33.024483 225.154312,43.320908 
	C225.323013,43.912865 225.712997,44.441753 226.000000,45.000000 
	C226.000000,47.041992 226.000000,49.083984 225.977448,51.944031 
	C220.415619,66.918442 214.348190,71.002457 198.852554,71.002518 
	C142.196518,71.002739 85.539337,70.809937 28.885307,71.146652 
	C15.762384,71.224655 5.141569,67.230209 1.000000,52.000000 
z"/>
<path fill="#f47597"  stroke="none" 
	d="
M226.000000,175.000000 
	C226.000000,177.041992 226.000000,179.083984 225.719360,181.791809 
	C222.747726,193.625137 214.764053,200.278763 203.347946,200.291565 
	C143.374542,200.358795 83.400887,200.367096 23.427889,200.196411 
	C19.769012,200.186005 15.881077,198.971191 12.508780,197.424759 
	C6.032164,194.454773 3.162085,188.400635 1.000000,182.000000 
	C1.000000,179.958008 1.000000,177.916016 1.022760,175.056030 
	C6.583098,160.081421 12.650803,155.997620 28.150490,155.997559 
	C84.804909,155.997345 141.459335,155.997452 198.113754,155.997482 
	C214.744324,155.997498 220.158844,159.687180 226.000000,175.000000 
z"/>
<path fill="##f47597"  stroke="none" 
	d="
M226.000000,44.531342 
	C225.712997,44.441753 225.323013,43.912865 225.154312,43.320908 
	C222.219757,33.024483 214.352234,26.732885 203.589523,26.719378 
	C143.606293,26.644098 83.622879,26.641199 23.639645,26.709139 
	C12.221581,26.722071 4.152453,33.464458 1.291202,44.782532 
	C1.000000,30.353855 1.000000,15.707710 1.000008,1.061510 
	C76.000023,1.061455 151.000031,1.061455 226.000000,1.061455 
	C226.000000,15.436168 226.000000,29.749426 226.000000,44.531342 
z"/>
<path fill="##f47597"  stroke="none" 
	d="
M1.000000,182.468658 
	C3.162085,188.400635 6.032164,194.454773 12.508780,197.424759 
	C15.881077,198.971191 19.769012,200.186005 23.427889,200.196411 
	C83.400887,200.367096 143.374542,200.358795 203.347946,200.291565 
	C214.764053,200.278763 222.747726,193.625137 225.719360,182.228821 
	C226.000000,196.646149 226.000000,211.292282 226.000000,225.938477 
	C150.999985,225.938538 75.999969,225.938538 1.000000,225.938538 
	C1.000000,211.563828 1.000000,197.250580 1.000000,182.468658 
z"/>
<path fill="##f47597"  stroke="none" 
	d="
M1.000000,52.468658 
	C5.141569,67.230209 15.762384,71.224655 28.885307,71.146652 
	C85.539337,70.809937 142.196518,71.002739 198.852554,71.002518 
	C214.348190,71.002457 220.415619,66.918442 225.977448,52.381042 
	C226.000000,71.020897 226.000000,90.041786 226.000000,109.531342 
	C220.771179,95.476097 214.548569,91.157753 198.844574,91.157677 
	C141.189850,91.157394 83.535141,91.147530 25.880426,91.165199 
	C12.727240,91.169235 4.282239,97.570282 1.259522,109.747818 
	C1.000000,90.979103 1.000000,71.958214 1.000000,52.468658 
z"/>
<path fill="##f47597"  stroke="none" 
	d="
M226.000000,174.531342 
	C220.158844,159.687180 214.744324,155.997498 198.113754,155.997482 
	C141.459335,155.997452 84.804909,155.997345 28.150490,155.997559 
	C12.650803,155.997620 6.583098,160.081421 1.022760,174.619019 
	C1.000000,155.979111 1.000000,136.958206 1.000000,117.468658 
	C6.229139,131.524048 12.451511,135.842178 28.155405,135.842255 
	C85.810120,135.842514 143.464828,135.852402 201.119537,135.834747 
	C214.272659,135.830719 222.717850,129.429535 225.740448,117.252167 
	C226.000000,136.020889 226.000000,155.041794 226.000000,174.531342 
z"/>
</svg>