<svg version="1.1" id="Layer_1" xmlns="http://www.w3.org/2000/svg" xmlns:xlink="http://www.w3.org/1999/xlink" x="0px" y="0px"
	 width="100%" viewBox="0 0 496 496" enable-background="new 0 0 496 496" xml:space="preserve">
<path fill="#000000" opacity="1.000000" stroke="none" 
	d="
M366.187744,386.397003 
	C359.475708,387.724670 353.143646,387.368225 346.832520,387.368561 
	C281.500763,387.371887 216.168976,387.400208 150.837265,387.346222 
	C128.027161,387.327393 105.873955,383.750580 85.277023,373.457825 
	C73.519455,367.582275 62.758408,360.194366 52.960484,351.253479 
	C40.157085,339.570007 29.775658,326.169830 22.335676,310.613708 
	C15.284374,295.870239 11.186457,280.293793 9.506223,263.917114 
	C6.740820,236.963623 12.070309,211.733627 24.109131,187.770386 
	C29.271505,177.494675 36.151356,168.391418 43.850483,159.760986 
	C54.952415,147.316162 68.032921,137.563354 82.560410,129.785309 
	C95.215698,123.009636 108.890266,118.807320 123.128532,116.699997 
	C137.805344,114.527756 152.593750,114.562424 167.387283,114.627335 
	C188.219727,114.718758 209.052933,114.634285 229.885513,114.708878 
	C231.703384,114.715378 234.531662,113.752029 234.971405,116.425339 
	C235.577881,120.112160 236.311295,124.091820 234.362717,127.597870 
	C233.648788,128.882416 231.582306,128.318695 230.114578,128.326523 
	C223.290024,128.362961 216.465149,128.342651 208.491943,128.342651 
	C228.476196,189.174606 248.267944,249.420563 268.059692,309.666534 
	C268.562286,309.729279 269.064911,309.792053 269.567535,309.854797 
	C293.625519,249.714935 317.683502,189.575073 342.178833,128.342010 
	C334.920166,128.342010 328.971008,128.139236 323.043701,128.411819 
	C318.949921,128.600082 317.134308,127.228149 317.624817,123.037994 
	C317.817444,121.392647 317.719086,119.707680 317.682037,118.042336 
	C317.631714,115.781464 318.630096,114.621964 320.950195,114.693207 
	C335.242188,115.132034 349.521149,114.325142 363.851044,115.320778 
	C377.053650,116.238106 389.859070,118.293190 402.310272,122.564812 
	C419.821289,128.572296 435.219147,138.100433 448.951935,150.534988 
	C473.479340,172.743668 487.883942,200.410690 492.050873,232.946625 
	C496.810486,270.109924 488.082733,304.197205 464.936737,334.048584 
	C445.910461,358.586823 421.213348,374.892395 391.193848,382.795380 
	C383.224091,384.893524 375.055298,386.716034 366.187744,386.397003 
M168.091843,154.145447 
	C165.673813,146.912445 163.226471,139.689011 160.854446,132.440948 
	C160.078949,130.071304 159.168549,128.249252 156.121399,128.309692 
	C146.325958,128.503937 136.483688,127.779305 126.764404,129.465942 
	C91.467674,135.591141 63.287796,153.244385 43.153255,182.830307 
	C25.760504,208.387421 19.238945,236.839798 23.262976,267.632477 
	C25.517788,284.886749 31.531595,300.802673 40.720207,315.404144 
	C51.672096,332.807587 66.122032,346.840790 83.933678,357.278748 
	C100.539749,367.010254 118.518486,373.060150 137.672028,373.465820 
	C170.469284,374.160492 203.291901,373.668457 236.103806,373.631622 
	C237.848404,373.629669 239.793732,374.239929 241.779144,372.154541 
	C217.393112,299.906860 192.914337,227.384399 168.091843,154.145447 
M289.282501,286.510956 
	C277.938538,315.255280 266.594574,343.999603 255.253616,372.736359 
	C258.167236,374.043671 260.194336,373.632446 262.157593,373.634552 
	C291.990662,373.666534 321.823761,373.684570 351.656799,373.639008 
	C358.793671,373.628113 365.909393,373.815155 373.052155,372.745056 
	C392.957672,369.763000 411.307465,362.935211 427.601074,351.093323 
	C446.392548,337.436066 460.861176,320.160736 470.137756,298.708191 
	C478.577728,279.190369 481.797668,258.629822 479.304810,237.753632 
	C475.836548,208.708588 463.678497,183.570236 442.142365,163.075867 
	C418.119507,140.215057 389.810120,128.679993 356.746094,128.279205 
	C352.680115,128.229919 350.709564,129.872223 349.368927,133.417480 
	C345.557343,143.496826 341.587006,153.516464 337.642334,163.545090 
	C321.614807,204.292374 305.573486,245.034210 289.282501,286.510956 
z"/>
</svg>